<?xml version="1.0" encoding="utf-8" standalone="no"?>
<!DOCTYPE svg PUBLIC "-//W3C//DTD SVG 1.1//EN"
  "http://www.w3.org/Graphics/SVG/1.1/DTD/svg11.dtd">
<svg xmlns:xlink="http://www.w3.org/1999/xlink" width="479.597969pt" height="305.003165pt" viewBox="0 0 479.597969 305.003165" xmlns="http://www.w3.org/2000/svg" version="1.1">
 <metadata>
  <rdf:RDF xmlns:dc="http://purl.org/dc/elements/1.1/" xmlns:cc="http://creativecommons.org/ns#" xmlns:rdf="http://www.w3.org/1999/02/22-rdf-syntax-ns#">
   <cc:Work>
    <dc:type rdf:resource="http://purl.org/dc/dcmitype/StillImage"/>
    <dc:date>2026-07-15T02:24:49.155878</dc:date>
    <dc:format>image/svg+xml</dc:format>
    <dc:creator>
     <cc:Agent>
      <dc:title>Matplotlib v3.10.8, https://matplotlib.org/</dc:title>
     </cc:Agent>
    </dc:creator>
   </cc:Work>
  </rdf:RDF>
 </metadata>
 <defs>
  <style type="text/css">*{stroke-linejoin: round; stroke-linecap: butt}</style>
 </defs>
 <g id="figure_1">
  <g id="patch_1">
   <path d="M 0 305.003165 
L 479.597969 305.003165 
L 479.597969 0 
L 0 0 
z
" style="fill: #ffffff"/>
  </g>
  <g id="axes_1">
   <g id="patch_2">
    <path d="M 47.107969 283.467384 
L 472.397969 283.467384 
L 472.397969 7.2 
L 47.107969 7.2 
z
" style="fill: #ffffff"/>
   </g>
   <g id="patch_3">
    <path d="M 66.439332 283.467384 
L 238.273676 283.467384 
L 238.273676 178.208499 
L 66.439332 178.208499 
z
" clip-path="url(#pcf932436ee)" style="fill: #3f3f3f; stroke: #111111; stroke-width: 0.55; stroke-linejoin: miter"/>
   </g>
   <g id="patch_4">
    <path d="M 281.232262 283.467384 
L 453.066605 283.467384 
L 453.066605 165.572385 
L 281.232262 165.572385 
z
" clip-path="url(#pcf932436ee)" style="fill: #3f3f3f; stroke: #111111; stroke-width: 0.55; stroke-linejoin: miter"/>
   </g>
   <g id="patch_5">
    <path d="M 66.439332 178.208499 
L 238.273676 178.208499 
L 238.273676 103.857331 
L 66.439332 103.857331 
z
" clip-path="url(#pcf932436ee)" style="fill: url(#h94654e16a8); stroke: #111111; stroke-width: 0.55; stroke-linejoin: miter"/>
   </g>
   <g id="patch_6">
    <path d="M 281.232262 165.572385 
L 453.066605 165.572385 
L 453.066605 75.827809 
L 281.232262 75.827809 
z
" clip-path="url(#pcf932436ee)" style="fill: url(#h94654e16a8); stroke: #111111; stroke-width: 0.55; stroke-linejoin: miter"/>
   </g>
   <g id="patch_7">
    <path d="M 66.439332 103.857331 
L 238.273676 103.857331 
L 238.273676 32.315217 
L 66.439332 32.315217 
z
" clip-path="url(#pcf932436ee)" style="fill: url(#hdf22f84ff4); stroke: #111111; stroke-width: 0.55; stroke-linejoin: miter"/>
   </g>
   <g id="patch_8">
    <path d="M 281.232262 75.827809 
L 453.066605 75.827809 
L 453.066605 36.251158 
L 281.232262 36.251158 
z
" clip-path="url(#pcf932436ee)" style="fill: url(#hdf22f84ff4); stroke: #111111; stroke-width: 0.55; stroke-linejoin: miter"/>
   </g>
   <g id="matplotlib.axis_1">
    <g id="xtick_1">
     <g id="line2d_1">
      <defs>
       <path id="m13d3dfcc00" d="M 0 0 
L 0 3.5 
" style="stroke: #000000; stroke-width: 0.8"/>
      </defs>
      <g>
       <use xlink:href="#m13d3dfcc00" x="152.356504" y="283.467384" style="stroke: #000000; stroke-width: 0.8"/>
      </g>
     </g>
     <g id="text_1">
      <text style="font-size: 7px; font-family: 'Microsoft YaHei', 'SimHei', 'Arial', 'DejaVu Sans', sans-serif; text-anchor: middle" x="152.356504" y="296.063009" transform="rotate(-0 152.356504 296.063009)">问题二</text>
     </g>
    </g>
    <g id="xtick_2">
     <g id="line2d_2">
      <g>
       <use xlink:href="#m13d3dfcc00" x="367.149433" y="283.467384" style="stroke: #000000; stroke-width: 0.8"/>
      </g>
     </g>
     <g id="text_2">
      <text style="font-size: 7px; font-family: 'Microsoft YaHei', 'SimHei', 'Arial', 'DejaVu Sans', sans-serif; text-anchor: middle" x="367.149433" y="296.063009" transform="rotate(-0 367.149433 296.063009)">问题三</text>
     </g>
    </g>
   </g>
   <g id="matplotlib.axis_2">
    <g id="ytick_1">
     <g id="line2d_3">
      <defs>
       <path id="m1845deb46c" d="M 0 0 
L -3.5 0 
" style="stroke: #000000; stroke-width: 0.8"/>
      </defs>
      <g>
       <use xlink:href="#m1845deb46c" x="47.107969" y="283.467384" style="stroke: #000000; stroke-width: 0.8"/>
      </g>
     </g>
     <g id="text_3">
      <text style="font-size: 7px; font-family: 'Microsoft YaHei', 'SimHei', 'Arial', 'DejaVu Sans', sans-serif; text-anchor: end" x="40.107969" y="286.265196" transform="rotate(-0 40.107969 286.265196)">0</text>
     </g>
    </g>
    <g id="ytick_2">
     <g id="line2d_4">
      <g>
       <use xlink:href="#m1845deb46c" x="47.107969" y="249.304345" style="stroke: #000000; stroke-width: 0.8"/>
      </g>
     </g>
     <g id="text_4">
      <text style="font-size: 7px; font-family: 'Microsoft YaHei', 'SimHei', 'Arial', 'DejaVu Sans', sans-serif; text-anchor: end" x="40.107969" y="252.102157" transform="rotate(-0 40.107969 252.102157)">2500</text>
     </g>
    </g>
    <g id="ytick_3">
     <g id="line2d_5">
      <g>
       <use xlink:href="#m1845deb46c" x="47.107969" y="215.141306" style="stroke: #000000; stroke-width: 0.8"/>
      </g>
     </g>
     <g id="text_5">
      <text style="font-size: 7px; font-family: 'Microsoft YaHei', 'SimHei', 'Arial', 'DejaVu Sans', sans-serif; text-anchor: end" x="40.107969" y="217.939118" transform="rotate(-0 40.107969 217.939118)">5000</text>
     </g>
    </g>
    <g id="ytick_4">
     <g id="line2d_6">
      <g>
       <use xlink:href="#m1845deb46c" x="47.107969" y="180.978267" style="stroke: #000000; stroke-width: 0.8"/>
      </g>
     </g>
     <g id="text_6">
      <text style="font-size: 7px; font-family: 'Microsoft YaHei', 'SimHei', 'Arial', 'DejaVu Sans', sans-serif; text-anchor: end" x="40.107969" y="183.77608" transform="rotate(-0 40.107969 183.77608)">7500</text>
     </g>
    </g>
    <g id="ytick_5">
     <g id="line2d_7">
      <g>
       <use xlink:href="#m1845deb46c" x="47.107969" y="146.815228" style="stroke: #000000; stroke-width: 0.8"/>
      </g>
     </g>
     <g id="text_7">
      <text style="font-size: 7px; font-family: 'Microsoft YaHei', 'SimHei', 'Arial', 'DejaVu Sans', sans-serif; text-anchor: end" x="40.107969" y="149.613041" transform="rotate(-0 40.107969 149.613041)">10000</text>
     </g>
    </g>
    <g id="ytick_6">
     <g id="line2d_8">
      <g>
       <use xlink:href="#m1845deb46c" x="47.107969" y="112.65219" style="stroke: #000000; stroke-width: 0.8"/>
      </g>
     </g>
     <g id="text_8">
      <text style="font-size: 7px; font-family: 'Microsoft YaHei', 'SimHei', 'Arial', 'DejaVu Sans', sans-serif; text-anchor: end" x="40.107969" y="115.450002" transform="rotate(-0 40.107969 115.450002)">12500</text>
     </g>
    </g>
    <g id="ytick_7">
     <g id="line2d_9">
      <g>
       <use xlink:href="#m1845deb46c" x="47.107969" y="78.489151" style="stroke: #000000; stroke-width: 0.8"/>
      </g>
     </g>
     <g id="text_9">
      <text style="font-size: 7px; font-family: 'Microsoft YaHei', 'SimHei', 'Arial', 'DejaVu Sans', sans-serif; text-anchor: end" x="40.107969" y="81.286963" transform="rotate(-0 40.107969 81.286963)">15000</text>
     </g>
    </g>
    <g id="ytick_8">
     <g id="line2d_10">
      <g>
       <use xlink:href="#m1845deb46c" x="47.107969" y="44.326112" style="stroke: #000000; stroke-width: 0.8"/>
      </g>
     </g>
     <g id="text_10">
      <text style="font-size: 7px; font-family: 'Microsoft YaHei', 'SimHei', 'Arial', 'DejaVu Sans', sans-serif; text-anchor: end" x="40.107969" y="47.123924" transform="rotate(-0 40.107969 47.123924)">17500</text>
     </g>
    </g>
    <g id="ytick_9">
     <g id="line2d_11">
      <g>
       <use xlink:href="#m1845deb46c" x="47.107969" y="10.163073" style="stroke: #000000; stroke-width: 0.8"/>
      </g>
     </g>
     <g id="text_11">
      <text style="font-size: 7px; font-family: 'Microsoft YaHei', 'SimHei', 'Arial', 'DejaVu Sans', sans-serif; text-anchor: end" x="40.107969" y="12.960886" transform="rotate(-0 40.107969 12.960886)">20000</text>
     </g>
    </g>
    <g id="text_12">
     <text style="font-size: 8px; font-family: 'Microsoft YaHei', 'SimHei', 'Arial', 'DejaVu Sans', sans-serif; text-anchor: middle" x="13.595" y="145.333692" transform="rotate(-90 13.595 145.333692)">周均期望供货量（m³）</text>
    </g>
   </g>
   <g id="patch_9">
    <path d="M 47.107969 283.467384 
L 47.107969 7.2 
" style="fill: none; stroke: #000000; stroke-width: 0.8; stroke-linejoin: miter; stroke-linecap: square"/>
   </g>
   <g id="patch_10">
    <path d="M 47.107969 283.467384 
L 472.397969 283.467384 
" style="fill: none; stroke: #000000; stroke-width: 0.8; stroke-linejoin: miter; stroke-linecap: square"/>
   </g>
   <g id="text_13">
    <text style="font-size: 8px; font-family: 'Microsoft YaHei', 'SimHei', 'Arial', 'DejaVu Sans', sans-serif; text-anchor: middle" x="152.356504" y="29.308869" transform="rotate(-0 152.356504 29.308869)">合计 18,378.9</text>
   </g>
   <g id="text_14">
    <text style="font-size: 8px; font-family: 'Microsoft YaHei', 'SimHei', 'Arial', 'DejaVu Sans', sans-serif; text-anchor: middle" x="367.149433" y="33.244811" transform="rotate(-0 367.149433 33.244811)">合计 18,090.9</text>
   </g>
   <g id="legend_1">
    <g id="patch_11">
     <path d="M 53.407969 275.427227 
L 67.407969 275.427227 
L 67.407969 270.527227 
L 53.407969 270.527227 
z
" style="fill: #3f3f3f; stroke: #111111; stroke-width: 0.55; stroke-linejoin: miter"/>
    </g>
    <g id="text_15">
     <text style="font-size: 7px; font-family: 'Microsoft YaHei', 'SimHei', 'Arial', 'DejaVu Sans', sans-serif; text-anchor: start" x="73.007969" y="275.427227" transform="rotate(-0 73.007969 275.427227)">A 类</text>
    </g>
    <g id="patch_12">
     <path d="M 101.004688 275.427227 
L 115.004688 275.427227 
L 115.004688 270.527227 
L 101.004688 270.527227 
z
" style="fill: url(#h94654e16a8); stroke: #111111; stroke-width: 0.55; stroke-linejoin: miter"/>
    </g>
    <g id="text_16">
     <text style="font-size: 7px; font-family: 'Microsoft YaHei', 'SimHei', 'Arial', 'DejaVu Sans', sans-serif; text-anchor: start" x="120.604688" y="275.427227" transform="rotate(-0 120.604688 275.427227)">B 类</text>
    </g>
    <g id="patch_13">
     <path d="M 148.06875 275.427227 
L 162.06875 275.427227 
L 162.06875 270.527227 
L 148.06875 270.527227 
z
" style="fill: url(#hdf22f84ff4); stroke: #111111; stroke-width: 0.55; stroke-linejoin: miter"/>
    </g>
    <g id="text_17">
     <text style="font-size: 7px; font-family: 'Microsoft YaHei', 'SimHei', 'Arial', 'DejaVu Sans', sans-serif; text-anchor: start" x="167.66875" y="275.427227" transform="rotate(-0 167.66875 275.427227)">C 类</text>
    </g>
   </g>
  </g>
 </g>
 <defs>
  <clipPath id="pcf932436ee">
   <rect x="47.107969" y="7.2" width="425.29" height="276.267384"/>
  </clipPath>
 </defs>
 <defs>
  <pattern id="h94654e16a8" patternUnits="userSpaceOnUse" x="0" y="0" width="72" height="72">
   <rect x="0" y="0" width="73" height="73" fill="#777777"/>
   <path d="M -36 36 
L 36 -36 
M -30 42 
L 42 -30 
M -24 48 
L 48 -24 
M -18 54 
L 54 -18 
M -12 60 
L 60 -12 
M -6 66 
L 66 -6 
M 0 72 
L 72 0 
M 6 78 
L 78 6 
M 12 84 
L 84 12 
M 18 90 
L 90 18 
M 24 96 
L 96 24 
M 30 102 
L 102 30 
M 36 108 
L 108 36 
" style="fill: #111111; stroke: #111111; stroke-width: 1.0; stroke-linecap: butt; stroke-linejoin: miter"/>
  </pattern>
  <pattern id="hdf22f84ff4" patternUnits="userSpaceOnUse" x="0" y="0" width="72" height="72">
   <rect x="0" y="0" width="73" height="73" fill="#b0b0b0"/>
   <path d="M -36 36 
L 36 -36 
M -30 42 
L 42 -30 
M -24 48 
L 48 -24 
M -18 54 
L 54 -18 
M -12 60 
L 60 -12 
M -6 66 
L 66 -6 
M 0 72 
L 72 0 
M 6 78 
L 78 6 
M 12 84 
L 84 12 
M 18 90 
L 90 18 
M 24 96 
L 96 24 
M 30 102 
L 102 30 
M 36 108 
L 108 36 
M -36 36 
L 36 108 
M -30 30 
L 42 102 
M -24 24 
L 48 96 
M -18 18 
L 54 90 
M -12 12 
L 60 84 
M -6 6 
L 66 78 
M 0 0 
L 72 72 
M 6 -6 
L 78 66 
M 12 -12 
L 84 60 
M 18 -18 
L 90 54 
M 24 -24 
L 96 48 
M 30 -30 
L 102 42 
M 36 -36 
L 108 36 
" style="fill: #111111; stroke: #111111; stroke-width: 1.0; stroke-linecap: butt; stroke-linejoin: miter"/>
  </pattern>
 </defs>
</svg>
